<svg width="16" height="16" viewBox="0 0 16 16" fill="none" xmlns="http://www.w3.org/2000/svg">
<path d="M8.50037 4.99697V7.71384L10.7579 9.06822C10.8716 9.13651 10.9535 9.24718 10.9856 9.37588C11.0177 9.50457 10.9974 9.64076 10.9291 9.75447C10.8608 9.86818 10.7502 9.95011 10.6215 9.98222C10.4928 10.0143 10.3566 9.99401 10.2429 9.92572L7.74287 8.42572C7.66888 8.38127 7.60766 8.31841 7.56516 8.24328C7.52267 8.16815 7.50035 8.08329 7.50037 7.99697V4.99697C7.50037 4.86436 7.55305 4.73718 7.64682 4.64342C7.74059 4.54965 7.86777 4.49697 8.00037 4.49697C8.13298 4.49697 8.26016 4.54965 8.35393 4.64342C8.4477 4.73718 8.50037 4.86436 8.50037 4.99697ZM14.0004 3.49697C13.8678 3.49697 13.7406 3.54965 13.6468 3.64342C13.5531 3.73718 13.5004 3.86436 13.5004 3.99697V5.12197C13.1035 4.66197 12.6985 4.21884 12.2429 3.75759C11.409 2.92366 10.3479 2.35394 9.19214 2.11963C8.03636 1.88531 6.83715 1.99679 5.74437 2.44014C4.65158 2.88348 3.71367 3.63903 3.04783 4.61237C2.382 5.58572 2.01776 6.73369 2.00063 7.91287C1.98351 9.09204 2.31425 10.2501 2.95154 11.2424C3.58882 12.2347 4.50439 13.0171 5.58384 13.492C6.6633 13.9669 7.85876 14.1132 9.02086 13.9125C10.183 13.7119 11.2602 13.1732 12.1179 12.3638C12.1656 12.3187 12.2041 12.2646 12.2309 12.2046C12.2578 12.1446 12.2725 12.0799 12.2744 12.0142C12.2763 11.9485 12.2652 11.8831 12.2417 11.8217C12.2183 11.7603 12.183 11.7041 12.1379 11.6563C12.0927 11.6086 12.0386 11.5702 11.9786 11.5433C11.9187 11.5165 11.854 11.5017 11.7883 11.4998C11.7226 11.498 11.6571 11.5091 11.5957 11.5325C11.5343 11.5559 11.4781 11.5912 11.4304 11.6363C10.7154 12.3101 9.81777 12.7584 8.84958 12.9251C7.88138 13.0918 6.88553 12.9696 5.98638 12.5737C5.08723 12.1778 4.32464 11.5258 3.79382 10.6991C3.263 9.8724 2.98749 8.90765 3.00169 7.92531C3.0159 6.94297 3.31918 5.98658 3.87367 5.17558C4.42816 4.36457 5.20928 3.73489 6.1195 3.36516C7.02972 2.99544 8.02868 2.90205 8.99166 3.09667C9.95463 3.29129 10.8389 3.76529 11.5341 4.45947C12.0429 4.97447 12.4885 5.47072 12.9379 5.99697H11.5004C11.3678 5.99697 11.2406 6.04965 11.1468 6.14342C11.0531 6.23718 11.0004 6.36436 11.0004 6.49697C11.0004 6.62958 11.0531 6.75675 11.1468 6.85052C11.2406 6.94429 11.3678 6.99697 11.5004 6.99697H14.0004C14.133 6.99697 14.2602 6.94429 14.3539 6.85052C14.4477 6.75675 14.5004 6.62958 14.5004 6.49697V3.99697C14.5004 3.86436 14.4477 3.73718 14.3539 3.64342C14.2602 3.54965 14.133 3.49697 14.0004 3.49697Z" fill="#ACACAC"/>
</svg>
